<svg xmlns="http://www.w3.org/2000/svg" viewBox="0 0 500 500"><g id="freepik--background-simple--inject-373"><path d="M167.19,71.92S91.42,110.52,53.63,170,18.83,306,64.75,362.8s133.69,49.34,207.18,85.32,154.57,28.57,189.32-47.66S443.6,295.74,434.6,207.52,346.07-9.88,167.19,71.92Z" style="fill:#90CAF9"></path><path d="M167.19,71.92S91.42,110.52,53.63,170,18.83,306,64.75,362.8s133.69,49.34,207.18,85.32,154.57,28.57,189.32-47.66S443.6,295.74,434.6,207.52,346.07-9.88,167.19,71.92Z" style="fill:#fff;opacity:0.7000000000000001"></path></g><g id="freepik--question-marks-2--inject-373"><path d="M373.67,338.61v-3.35c0-17.25,21.84-18,21.84-30.28,0-5.33-4.34-8.81-10.8-8.81-7.07,0-11.54,3.85-11.54,9.31v1.37c0,1.36-.74,2-2.11,2l-13.27-.5c-1.24,0-2.11-.62-2.11-1.48v-1.37c0-15,11.91-25.31,29.41-25.31,17.12,0,28.16,9.68,28.16,24.19,0,20.6-22.21,20.73-22.21,32v2.23a1.9,1.9,0,0,1-2.11,2.11H375.78A1.9,1.9,0,0,1,373.67,338.61Zm-1.12,20c0-5.46,4.84-9.93,10.67-9.93,5.59,0,10.55,4.47,10.55,9.93s-5,9.93-10.67,9.93S372.55,364.05,372.55,358.59Z" style="fill:#263238"></path><path d="M111.47,196.51V193.6c0-15,19-15.63,19-26.3,0-4.64-3.77-7.65-9.37-7.65-6.15,0-10,3.34-10,8.08v1.19c0,1.18-.64,1.72-1.83,1.72l-11.53-.43c-1.08,0-1.83-.54-1.83-1.29v-1.19c0-13,10.34-22,25.54-22,14.87,0,24.47,8.41,24.47,21,0,17.89-19.3,18-19.3,27.81v1.94a1.65,1.65,0,0,1-1.83,1.83H113.3A1.65,1.65,0,0,1,111.47,196.51Zm-1,17.35c0-4.74,4.2-8.62,9.26-8.62,4.85,0,9.17,3.88,9.17,8.62s-4.32,8.62-9.27,8.62A8.91,8.91,0,0,1,110.5,213.86Z" style="fill:#90CAF9"></path><path d="M352.83,81.76V80.29c0-7.57,9.58-7.9,9.58-13.29,0-2.34-1.91-3.87-4.74-3.87-3.1,0-5.06,1.69-5.06,4.09v.6c0,.6-.33.87-.93.87l-5.82-.22c-.55,0-.93-.27-.93-.65v-.6c0-6.59,5.23-11.11,12.91-11.11,7.51,0,12.36,4.25,12.36,10.62,0,9-9.75,9.09-9.75,14v1a.83.83,0,0,1-.93.92h-5.77A.82.82,0,0,1,352.83,81.76Zm-.49,8.77A4.67,4.67,0,1,1,357,94.88,4.5,4.5,0,0,1,352.34,90.53Z" style="fill:#90CAF9"></path><path d="M72,284v-1.85c0-9.54,12.08-9.95,12.08-16.75,0-2.95-2.4-4.87-6-4.87-3.91,0-6.38,2.13-6.38,5.15v.75c0,.76-.41,1.1-1.17,1.1l-7.34-.27c-.69,0-1.17-.35-1.17-.83v-.75c0-8.3,6.59-14,16.27-14,9.47,0,15.57,5.35,15.57,13.38,0,11.39-12.28,11.46-12.28,17.71V284a1.05,1.05,0,0,1-1.17,1.17H73.15A1.05,1.05,0,0,1,72,284Zm-.62,11.05a5.88,5.88,0,1,1,5.84,5.49A5.68,5.68,0,0,1,71.36,295.05Z" style="fill:none;stroke:#263238;stroke-miterlimit:10"></path><path d="M164,111.38v-1.27c0-6.56,8.31-6.85,8.31-11.52,0-2-1.65-3.35-4.11-3.35-2.69,0-4.39,1.46-4.39,3.54v.52c0,.52-.28.75-.8.75l-5-.19c-.47,0-.8-.23-.8-.56v-.52c0-5.71,4.53-9.63,11.18-9.63S179,92.83,179,98.35c0,7.84-8.45,7.89-8.45,12.18v.85a.72.72,0,0,1-.8.8h-5A.72.72,0,0,1,164,111.38Zm-.42,7.6a4,4,0,1,1,4,3.78A3.9,3.9,0,0,1,163.55,119Z" style="fill:#263238"></path><path d="M312,385.53v-1.27c0-6.56,8.31-6.84,8.31-11.52,0-2-1.65-3.35-4.11-3.35-2.69,0-4.39,1.46-4.39,3.54v.52c0,.52-.28.76-.8.76l-5-.19c-.47,0-.8-.24-.8-.57v-.52c0-5.71,4.53-9.63,11.18-9.63s10.72,3.68,10.72,9.21c0,7.83-8.45,7.88-8.45,12.17v.85a.73.73,0,0,1-.8.81h-5A.73.73,0,0,1,312,385.53Zm-.42,7.6a4,4,0,1,1,4,3.78A3.9,3.9,0,0,1,311.59,393.13Z" style="fill:none;stroke:#263238;stroke-miterlimit:10"></path></g><g id="freepik--question-mark-1--inject-373"><path d="M272.85,408.29c-.07-.21-.14-.42-.22-.63s-.14-.43-.22-.64-.14-.42-.22-.63-.14-.43-.22-.64-.14-.42-.22-.63-.14-.43-.22-.64l-.22-.63c-.07-.22-.15-.43-.22-.64l-.22-.63c-.07-.22-.15-.43-.22-.64l-.22-.63c-.07-.22-.15-.43-.22-.64L270,400c-.07-.22-.15-.43-.22-.64l-.23-.63c-.07-.22-.14-.43-.22-.64s-.14-.42-.22-.63-.14-.43-.22-.64-.14-.42-.22-.63c-3.26-9.92-13.34-17.2-24.43-17.2-10.75,0-20.1,6.26-24,15.08-.1.2-.19.41-.28.61l-.27.62c-.1.2-.19.4-.28.61s-.19.41-.28.61l-.27.61c-.1.21-.19.41-.28.62s-.19.4-.28.61-.19.4-.28.61l-.27.61c-.1.2-.19.41-.28.61s-.19.41-.28.61l-.27.62c-.1.2-.19.4-.28.61s-.19.41-.28.61l-.27.61c-.1.21-.19.41-.28.62s-.19.4-.28.61l-.27.61c-.1.2-.19.41-.28.61s-.19.41-.28.62A27.21,27.21,0,0,0,212.12,418c0,16.1,13.9,29.26,31.09,29.26,16.82,0,31.45-13.16,31.45-29.26a26.42,26.42,0,0,0-1.59-9C273,408.71,272.93,408.5,272.85,408.29Z" style="fill:#263238"></path><path d="M249.06,186.8c-51.57,0-86.68,30.35-86.68,74.61v4a3.84,3.84,0,0,0,1.9,3.26,4.91,4.91,0,0,0,.7.56,4.38,4.38,0,0,0,.71.56,4.38,4.38,0,0,0,.71.56,4,4,0,0,0,.71.56,4.3,4.3,0,0,0,.7.56,4.43,4.43,0,0,0,.71.57,5,5,0,0,0,.71.56,4.5,4.5,0,0,0,.71.56,4.41,4.41,0,0,0,.7.56,4.65,4.65,0,0,0,.77.6,5.63,5.63,0,0,0,.65.51,5,5,0,0,0,.71.56,4.91,4.91,0,0,0,.7.56,5,5,0,0,0,.71.56,4.5,4.5,0,0,0,.71.56,4.41,4.41,0,0,0,.7.56,4.5,4.5,0,0,0,.71.56,4.41,4.41,0,0,0,.7.56,5,5,0,0,0,.71.56,4.41,4.41,0,0,0,.7.56,5.89,5.89,0,0,0,4.2,1.46l32.16,1.2c3.31,0,5.11-1.5,5.11-4.81v-3.3c0-13.23,10.82-22.54,28-22.54,15.63,0,26.15,8.41,26.15,21.34a23.1,23.1,0,0,1-.42,4.39c-16.14,21.16-58.15,30.49-58.15,71.56v9.88c0,4,2.19,6.21,6.22,6.21H260.4c4,0,6.22-2.19,6.22-6.21v-6.59c0-33.28,65.47-33.65,65.47-94.36C332.09,215.32,299.53,186.8,249.06,186.8Z" style="fill:#263238"></path><path d="M215.41,359.07v-9.88c0-50.84,64.37-53,64.37-89.24,0-15.73-12.8-26-31.82-26-20.85,0-34,11.34-34,27.43v4c0,4-2.2,5.86-6.22,5.86l-39.14-1.47c-3.65,0-6.21-1.83-6.21-4.39v-4c0-44.26,35.11-74.61,86.68-74.61,50.47,0,83,28.52,83,71.32,0,60.71-65.47,61.08-65.47,94.36v6.59c0,4-2.2,6.21-6.22,6.21H221.63C217.6,365.28,215.41,363.09,215.41,359.07ZM212.12,418c0-16.09,14.26-29.26,31.45-29.26,16.46,0,31.09,13.17,31.09,29.26S260,447.21,243.21,447.21C226,447.21,212.12,434.05,212.12,418Z" style="fill:#90CAF9;stroke:#90CAF9;stroke-miterlimit:10"></path><ellipse cx="241.61" cy="467.79" rx="54.61" ry="12.21" style="fill:#263238"></ellipse></g></svg>