<svg xmlns="http://www.w3.org/2000/svg" viewBox="0 0 192 192"><defs><style>.cls-1{fill:#13b1a3;}.cls-2{fill:#f5f3cf;}</style></defs><title>Asset 2</title><g id="Layer_2" data-name="Layer 2"><g id="Layer_1-2" data-name="Layer 1"><rect class="cls-1" width="192" height="192"/><path class="cls-2" d="M144.29,129.55a38.05,38.05,0,0,1-6.52,7.34,56.63,56.63,0,0,1-29.38,13.39,55,55,0,0,1-9.15.7c-16.58-.31-30.55-6.64-41.83-18.76a53.66,53.66,0,0,1-13.79-27.06c-3.16-16.86.11-32.44,10.63-46.07A54,54,0,0,1,88.57,38.42a53.27,53.27,0,0,1,12.54-.66A54.86,54.86,0,0,1,116.38,41a47.31,47.31,0,0,0-20.65,6.12A49.88,49.88,0,0,0,76.12,66.72,49.36,49.36,0,0,0,70,84.24,42.19,42.19,0,0,0,73,106.92c3.29,7.72,7.75,14.56,14.26,20a44.85,44.85,0,0,0,23.41,10.43A47.46,47.46,0,0,0,141.38,131,23.15,23.15,0,0,1,144.29,129.55Z"/><path class="cls-2" d="M132.15,120.65a20.13,20.13,0,0,1-7.33-1.78,18.64,18.64,0,0,0-15.27-.07,28.94,28.94,0,0,1-6.78,1.71A9.41,9.41,0,0,1,93,115.12c-2.24-4.53-1.56-8.85,1.1-13a16.66,16.66,0,0,1,5.06-5,17.34,17.34,0,0,0,6.69-7.42,11,11,0,0,1,8.27-6.8c1-.19,2-.26,2.65-.34,5.26.12,9,2,11.19,6.51a20.71,20.71,0,0,0,7.68,8.39c4,2.66,6.71,6.35,7,11.29C143.12,115.77,137.46,120.85,132.15,120.65Z"/><path class="cls-2" d="M151.09,77.14a16.6,16.6,0,0,1-7.31,13.3,6.87,6.87,0,0,1-5.15,1.2,4.76,4.76,0,0,1-4-4.35,16.66,16.66,0,0,1,6.81-16c4.16-2.85,8.3-1.12,9.43,4C151,75.91,151,76.57,151.09,77.14Z"/><path class="cls-2" d="M135.09,65.26a17,17,0,0,1-4.31,11.33A6.66,6.66,0,0,1,124.5,79a4.85,4.85,0,0,1-4.18-4c-1.28-5.74-.79-11.24,2.79-16.17a12.85,12.85,0,0,1,1.44-1.6c3.42-3.31,7.61-1.52,9.29,1.61A13.29,13.29,0,0,1,135.09,65.26Z"/><path class="cls-2" d="M114.83,68.47a16.22,16.22,0,0,1-1.38,7.21,5.87,5.87,0,0,1-9.84,1.46,14.58,14.58,0,0,1-3.36-6.92,16.69,16.69,0,0,1,.68-10.4c1.43-3.36,4.21-4.94,7.39-4a6.75,6.75,0,0,1,3,2A14.83,14.83,0,0,1,114.83,68.47Z"/><path class="cls-2" d="M99.6,84.5c-.09.8-.13,1.62-.26,2.41-.79,4.86-5.21,5.87-8.4,3.92a15.35,15.35,0,0,1-7-10.06,10.81,10.81,0,0,1,.14-6.63c1.59-4,5.47-5.22,8.93-2.74a15.37,15.37,0,0,1,6.28,10.38c.08.46.14.93.18,1.4s0,.87,0,1.31Z"/></g></g></svg>