<svg xmlns="http://www.w3.org/2000/svg" viewBox="0 0 512 512"><defs><style>.cls-1{fill:#13b1a3;}.cls-2{fill:#f5f3cf;}</style></defs><title>Asset 1</title><g id="Layer_2" data-name="Layer 2"><g id="Layer_1-2" data-name="Layer 1"><rect class="cls-1" width="512" height="512"/><path class="cls-2" d="M384.77,345.46a101.87,101.87,0,0,1-17.39,19.59c-22.52,19.75-48.92,31.16-78.34,35.68a143.54,143.54,0,0,1-24.39,1.87c-44.22-.82-81.48-17.69-111.56-50C134,332.11,121.48,308,116.32,280.42c-8.42-45,.29-86.51,28.35-122.85,23.14-30,53.93-48.46,91.52-55.13a142.49,142.49,0,0,1,33.43-1.75c13.78.81,27.14,3.91,40.73,8.72-20.05,1.13-38.11,6.92-55.06,16.32A133.1,133.1,0,0,0,203,177.93a131.5,131.5,0,0,0-16.21,46.72,112.39,112.39,0,0,0,7.83,60.48c8.75,20.58,20.65,38.82,38,53.24,18.22,15.14,39,24.89,62.44,27.81,29.1,3.62,56.58-1.86,82-16.89A63.41,63.41,0,0,1,384.77,345.46Z"/><path class="cls-2" d="M352.39,321.73A53.42,53.42,0,0,1,332.85,317c-13.6-5.93-27-5.85-40.71-.17a76.91,76.91,0,0,1-18.09,4.55C263.26,322.94,253,317,248,307c-6-12.1-4.16-23.61,2.92-34.6a44.36,44.36,0,0,1,13.49-13.24c7.76-5,14-11.3,17.84-19.79,4.39-9.64,11.41-16.13,22.05-18.14,2.69-.51,5.44-.71,7.09-.92,14,.32,24.12,5.4,29.82,17.37,4.59,9.62,11.73,16.57,20.49,22.36,10.74,7.11,17.89,16.95,18.73,30.12C381.64,308.71,366.55,322.27,352.39,321.73Z"/><path class="cls-2" d="M402.91,205.7c-.83,15.12-7.37,26.88-19.49,35.46a18.23,18.23,0,0,1-13.75,3.21c-5.67-.89-9.74-5-10.74-11.59-2.21-14.82,3.56-32.6,18.17-42.62,11.08-7.6,22.12-3,25.14,10.56C402.62,202.42,402.71,204.18,402.91,205.7Z"/><path class="cls-2" d="M360.24,174a45.33,45.33,0,0,1-11.5,30.2c-4.44,5.15-10.06,7.41-16.74,6.47-6.19-.87-9.85-5.07-11.14-10.79-3.43-15.31-2.11-30,7.43-43.11a34.45,34.45,0,0,1,3.85-4.26c9.13-8.84,20.3-4.06,24.76,4.28C359.11,161,360.37,166.78,360.24,174Z"/><path class="cls-2" d="M306.2,182.59a42.82,42.82,0,0,1-3.68,19.23c-5,10.61-18.26,12.6-26.24,3.87-4.78-5.23-7.44-11.6-8.95-18.45-2.07-9.4-2-18.71,1.81-27.72s11.22-13.18,19.71-10.68a18.17,18.17,0,0,1,7.93,5.28C304,162.18,306.49,172,306.2,182.59Z"/><path class="cls-2" d="M265.59,225.33c-.22,2.15-.33,4.31-.68,6.44-2.12,12.95-13.91,15.66-22.4,10.44-10-6.13-15.94-15.45-18.56-26.82-1.37-5.89-2-11.84.38-17.69,4.23-10.57,14.57-13.92,23.8-7.3,9.44,6.76,14.85,16.23,16.75,27.68.2,1.24.39,2.48.47,3.72s0,2.34,0,3.51Z"/></g></g></svg>