<svg id="Layer_1" data-name="Layer 1" xmlns="http://www.w3.org/2000/svg" viewBox="0 0 600 600"><defs><style>.cls-1{fill:#1c2023;}.cls-2{fill:#fff9ce;}</style></defs><title>placeholder</title><rect class="cls-1" width="600" height="600"/><g id="Layer_1-2" data-name="Layer 1-2"><path class="cls-2" d="M397.06,372a77.55,77.55,0,0,1-13.32,15c-17.25,15.13-37.48,23.88-60,27.34A109.35,109.35,0,0,1,305,415.76c-33.88-.63-62.43-13.55-85.47-38.32a109.77,109.77,0,0,1-28.17-55.29c-6.45-34.42.22-66.26,21.72-94.1,17.73-23,41.32-37.13,70.12-42.24a109.28,109.28,0,0,1,25.61-1.34,111.75,111.75,0,0,1,31.2,6.7,96.59,96.59,0,0,0-42.18,12.5,102,102,0,0,0-40.08,40,100.55,100.55,0,0,0-12.42,35.79,86.12,86.12,0,0,0,6,46.34c6.71,15.76,15.82,29.75,29.12,40.8,14,11.6,29.85,19.06,47.84,21.3A96.8,96.8,0,0,0,391.12,375,50.49,50.49,0,0,1,397.06,372Z"/><path class="cls-2" d="M372.26,353.82a41.1,41.1,0,0,1-15-3.64c-10.42-4.54-20.67-4.48-31.19-.13a59,59,0,0,1-13.86,3.49c-8.27,1.21-16.14-3.32-19.94-11-4.58-9.27-3.18-18.08,2.24-26.51a34,34,0,0,1,10.34-10.15c5.94-3.84,10.71-8.65,13.67-15.16,3.36-7.38,8.74-12.35,16.9-13.9,2.06-.38,4.17-.53,5.43-.7,10.74.25,18.48,4.14,22.85,13.31,3.52,7.37,9,12.68,15.7,17.13,8.23,5.45,13.7,13,14.35,23.08C394.67,343.85,383.11,354.23,372.26,353.82Z"/><path class="cls-2" d="M411,264.94c-.65,11.58-5.66,20.59-14.94,27.17a14,14,0,0,1-10.54,2.46c-4.34-.68-7.45-3.8-8.22-8.89-1.7-11.35,2.72-25,13.92-32.66,8.49-5.82,16.95-2.28,19.26,8.1C410.74,262.41,410.81,263.76,411,264.94Z"/><path class="cls-2" d="M378.27,240.66a34.74,34.74,0,0,1-8.81,23.14,13.62,13.62,0,0,1-12.82,5c-4.74-.67-7.55-3.89-8.54-8.27-2.63-11.73-1.62-23,5.69-33.05a26.08,26.08,0,0,1,2.95-3.26c7-6.77,15.55-3.12,19,3.28C377.41,230.65,378.37,235.1,378.27,240.66Z"/><path class="cls-2" d="M336.87,247.22A32.86,32.86,0,0,1,334.05,262a12,12,0,0,1-20.1,3,30,30,0,0,1-6.87-14.14c-1.58-7.2-1.55-14.33,1.4-21.24s8.59-10.09,15.1-8.18a13.92,13.92,0,0,1,6.07,4C335.15,231.58,337.09,239.08,336.87,247.22Z"/><path class="cls-2" d="M305.76,280c-.17,1.65-.26,3.31-.53,4.93-1.62,9.93-10.65,12-17.16,8-7.64-4.69-12.21-11.83-14.21-20.54-1.05-4.52-1.51-9.08.29-13.56,3.24-8.09,11.14-10.66,18.23-5.59,7.24,5.18,11.38,12.43,12.83,21.21.16.94.3,1.9.39,2.85s0,1.79,0,2.69Z"/></g></svg>